<?xml version="1.0" encoding="UTF-8" ?>
<!DOCTYPE svg PUBLIC "-//W3C//DTD SVG 1.1//EN" "http://www.w3.org/Graphics/SVG/1.1/DTD/svg11.dtd">
<svg width="399pt" height="479pt" viewBox="0 0 399 479" version="1.1" xmlns="http://www.w3.org/2000/svg">
<g id="#d9eaefff">
</g>
<g id="#c4c4c4ff">
<path fill="#c4c4c4" opacity="1.00" d=" M 127.24 98.24 C 140.38 92.54 152.17 84.27 164.93 77.86 C 167.96 84.43 171.05 90.96 174.01 97.56 C 168.25 97.37 162.58 96.23 156.90 95.36 C 151.29 94.09 145.59 93.28 139.84 93.08 C 143.82 98.26 148.62 102.72 152.94 107.60 C 143.43 112.41 134.03 117.45 124.20 121.57 C 125.18 113.79 125.79 105.95 127.24 98.24 Z" />
<path fill="#c4c4c4" opacity="1.00" d=" M 200.79 227.77 C 203.15 223.83 205.12 219.58 208.48 216.35 C 212.63 217.87 216.81 219.33 221.09 220.44 C 215.70 228.25 211.01 236.53 206.04 244.61 C 202.01 242.70 197.98 240.81 193.94 238.92 C 191.35 243.02 188.75 247.12 186.14 251.22 C 171.43 243.42 156.85 235.40 142.00 227.90 L 141.31 227.64 C 145.24 224.77 149.12 221.84 153.05 218.97 C 162.90 224.13 173.12 228.53 183.05 233.52 C 186.69 235.28 190.30 237.10 193.92 238.91 C 196.23 235.21 198.54 231.51 200.79 227.77 Z" />
</g>
<g id="#ddddddff">
<path fill="#dddddd" opacity="1.00" d=" M 164.93 77.86 C 178.32 78.79 191.56 81.17 204.93 82.35 C 209.96 83.28 215.09 83.50 220.12 84.39 C 204.65 88.43 189.34 93.06 174.01 97.56 C 171.05 90.96 167.96 84.43 164.93 77.86 Z" />
<path fill="#dddddd" opacity="1.00" d=" M 124.20 121.57 C 134.03 117.45 143.43 112.41 152.94 107.60 C 152.42 117.49 151.22 127.33 150.73 137.22 C 142.97 143.33 135.16 149.35 127.32 155.35 C 124.62 157.49 121.96 159.69 119.23 161.80 C 119.06 155.77 120.67 149.91 121.20 143.94 C 122.36 136.50 123.16 129.02 124.20 121.57 Z" />
<path fill="#dddddd" opacity="1.00" d=" M 198.66 196.22 C 199.17 196.11 200.19 195.90 200.70 195.79 C 200.00 199.82 199.64 203.92 199.92 208.01 C 199.76 212.76 205.29 214.13 208.48 216.35 C 205.12 219.58 203.15 223.83 200.79 227.77 C 197.28 225.97 193.70 224.30 190.27 222.36 C 192.88 218.00 196.14 214.02 198.36 209.45 C 198.93 205.07 198.30 200.62 198.66 196.22 Z" />
<path fill="#dddddd" opacity="1.00" d=" M 156.34 205.67 C 167.55 211.40 178.85 216.95 190.23 222.32 C 187.83 226.05 185.44 229.79 183.05 233.52 C 173.12 228.53 162.90 224.13 153.05 218.97 C 153.92 214.48 154.83 209.99 156.34 205.67 Z" />
<path fill="#dddddd" opacity="1.00" d=" M 267.40 250.12 C 269.53 248.78 271.66 247.43 273.78 246.05 C 276.07 249.58 278.34 253.11 280.85 256.49 C 282.69 258.97 284.52 261.46 286.20 264.05 L 286.18 264.22 L 286.12 264.74 C 283.92 266.27 281.62 267.66 279.56 269.39 C 275.81 262.78 271.35 256.61 267.40 250.12 Z" />
<path fill="#dddddd" opacity="1.00" d=" M 174.14 301.82 C 176.71 302.72 179.33 303.53 181.98 304.17 C 181.30 311.39 180.14 318.54 179.03 325.70 C 175.86 325.06 172.66 324.61 169.47 324.09 C 169.63 323.30 169.96 321.70 170.13 320.91 C 171.54 314.56 172.79 308.18 174.14 301.82 Z" />
</g>
<g id="#e0bda7ff">
<path fill="#e0bda7" opacity="1.00" d=" M 174.01 97.56 C 189.34 93.06 204.65 88.43 220.12 84.39 C 221.61 94.36 224.13 104.15 225.77 114.09 C 219.03 115.40 212.30 116.70 205.57 118.08 C 201.32 118.89 197.09 119.80 192.85 120.66 C 185.54 121.93 178.28 123.47 170.98 124.79 C 169.23 125.08 167.47 125.34 165.72 125.60 C 162.59 115.58 159.39 105.56 156.90 95.36 C 162.58 96.23 168.25 97.37 174.01 97.56 Z" />
<path fill="#e0bda7" opacity="1.00" d=" M 186.54 132.25 C 187.75 131.72 188.93 131.11 190.12 130.52 C 191.28 134.71 192.13 138.98 192.62 143.30 C 187.32 144.10 182.16 145.75 176.78 146.01 C 177.19 141.82 177.66 137.64 178.34 133.50 C 179.82 133.32 181.31 133.14 182.79 132.92 C 182.45 134.83 182.33 137.93 185.03 138.00 C 188.53 138.79 189.79 133.52 186.54 132.25 Z" />
<path fill="#e0bda7" opacity="1.00" d=" M 227.31 143.83 L 227.93 143.71 C 228.72 143.69 230.29 143.65 231.08 143.63 C 233.41 158.21 235.12 172.89 237.64 187.44 C 235.83 188.19 234.00 188.89 232.07 189.25 C 221.58 191.28 211.17 193.68 200.70 195.79 C 200.19 195.90 199.17 196.11 198.66 196.22 C 193.34 197.28 188.00 198.27 182.69 199.36 C 178.73 184.44 175.31 169.38 171.76 154.36 C 172.53 154.23 174.08 153.96 174.85 153.83 C 181.61 153.59 188.30 152.60 195.04 152.07 C 197.91 151.57 199.93 154.07 202.00 155.61 C 202.15 155.73 202.44 155.97 202.58 156.09 C 204.39 157.63 206.26 159.10 208.15 160.54 C 209.46 158.68 210.75 156.81 212.03 154.93 C 211.55 154.98 210.58 155.10 210.10 155.16 C 210.67 154.42 211.25 153.69 211.83 152.96 C 211.65 151.74 211.49 150.52 211.31 149.30 C 211.74 149.49 212.62 149.89 213.06 150.08 C 217.92 148.27 222.73 146.29 227.31 143.83 M 192.94 174.36 C 192.98 174.98 193.07 176.21 193.11 176.83 C 202.74 174.90 212.40 173.14 221.97 170.98 C 222.02 170.41 222.11 169.28 222.15 168.71 C 212.39 170.45 202.69 172.57 192.94 174.36 Z" />
<path fill="#e0bda7" opacity="1.00" d=" M 132.23 155.47 C 137.06 153.21 141.97 151.10 146.60 148.43 C 147.03 148.96 147.89 150.02 148.32 150.55 C 149.99 153.49 151.27 156.63 152.74 159.68 C 153.83 161.99 154.87 164.33 155.91 166.66 C 155.44 166.93 154.49 167.46 154.01 167.72 C 150.09 169.51 146.16 171.29 142.22 173.06 C 139.13 167.06 134.72 161.79 132.23 155.47 M 137.09 155.81 C 141.02 158.59 144.81 161.57 148.92 164.10 C 147.05 160.44 145.06 156.84 143.27 153.15 C 141.18 153.97 139.12 154.86 137.09 155.81 Z" />
<path fill="#e0bda7" opacity="1.00" d=" M 289.82 233.10 L 289.82 233.52 C 289.78 235.31 290.09 237.09 290.55 238.82 C 291.84 242.97 293.03 247.15 293.89 251.41 C 291.68 251.68 289.48 251.94 287.27 252.21 C 286.79 250.64 286.22 249.08 285.66 247.54 C 283.89 250.43 282.32 253.43 280.85 256.49 C 278.34 253.11 276.07 249.58 273.78 246.05 C 278.21 242.68 283.03 239.86 287.59 236.65 C 288.91 235.91 289.45 234.49 289.82 233.10 Z" />
<path fill="#e0bda7" opacity="1.00" d=" M 181.98 304.17 L 182.69 304.33 C 189.48 305.65 196.30 306.83 203.12 307.98 L 203.01 309.00 C 201.41 317.19 201.09 325.68 198.61 333.66 C 192.06 331.07 185.63 328.16 179.03 325.70 C 180.14 318.54 181.30 311.39 181.98 304.17 Z" />
</g>
<g id="#c3987cff">
<path fill="#c3987c" opacity="1.00" d=" M 139.84 93.08 C 145.59 93.28 151.29 94.09 156.90 95.36 C 159.39 105.56 162.59 115.58 165.72 125.60 C 167.47 125.34 169.23 125.08 170.98 124.79 C 169.30 125.12 167.62 125.50 165.96 125.92 C 160.51 129.16 155.85 133.52 150.73 137.22 C 151.22 127.33 152.42 117.49 152.94 107.60 C 148.62 102.72 143.82 98.26 139.84 93.08 Z" />
<path fill="#c3987c" opacity="1.00" d=" M 155.90 147.89 C 160.40 146.31 164.96 144.89 169.42 143.17 C 170.24 146.89 170.91 150.64 171.76 154.36 C 175.31 169.38 178.73 184.44 182.69 199.36 C 180.42 199.80 178.17 200.31 175.92 200.79 C 180.68 207.97 185.26 215.28 190.23 222.32 C 178.85 216.95 167.55 211.40 156.34 205.67 C 152.78 199.99 150.57 193.52 147.14 187.74 L 147.30 187.50 C 151.22 181.39 153.04 174.21 155.63 167.48 L 154.01 167.72 C 154.49 167.46 155.44 166.93 155.91 166.66 C 154.87 164.33 153.83 161.99 152.74 159.68 C 154.79 158.49 156.83 157.30 158.87 156.11 C 158.00 153.32 157.03 150.57 155.90 147.89 Z" />
<path fill="#c3987c" opacity="1.00" d=" M 290.55 238.82 C 292.94 239.43 295.33 240.07 297.71 240.76 C 299.77 241.37 301.82 242.02 303.88 242.67 C 300.85 250.20 298.45 257.99 295.01 265.35 C 292.07 264.91 289.13 264.53 286.18 264.22 L 286.20 264.05 C 286.64 260.11 287.21 256.18 287.27 252.21 C 289.48 251.94 291.68 251.68 293.89 251.41 C 293.03 247.15 291.84 242.97 290.55 238.82 Z" />
</g>
<g id="#318fa6ff">
<path fill="#318fa6" opacity="1.00" d=" M 225.77 114.09 C 228.63 113.56 231.49 112.99 234.33 112.39 C 236.14 121.89 238.05 131.38 239.67 140.91 C 236.28 141.55 232.89 142.24 229.49 142.79 C 229.10 143.02 228.32 143.48 227.93 143.71 L 227.31 143.83 C 221.70 143.93 216.36 145.78 210.83 146.49 C 209.44 139.35 208.09 132.19 206.63 125.07 C 206.22 122.75 205.90 120.41 205.57 118.08 C 212.30 116.70 219.03 115.40 225.77 114.09 M 214.41 123.77 C 214.82 128.46 216.25 132.98 216.75 137.66 C 218.21 137.66 219.68 137.67 221.14 137.70 C 219.88 137.48 218.51 137.48 217.43 136.69 L 217.05 136.04 L 217.83 136.31 C 222.07 137.50 226.40 135.69 230.64 135.22 C 229.82 130.97 229.51 126.54 227.73 122.54 C 227.82 122.21 228.01 121.55 228.10 121.22 C 223.46 121.63 218.91 122.64 214.41 123.77 Z" />
<path fill="#318fa6" opacity="1.00" d=" M 170.98 124.79 C 178.28 123.47 185.54 121.93 192.85 120.66 C 193.53 120.83 194.88 121.17 195.56 121.34 C 196.08 123.25 196.62 125.15 197.05 127.08 C 198.15 134.12 199.68 141.08 200.79 148.11 C 192.16 150.13 183.44 151.71 174.85 153.83 C 174.08 153.96 172.53 154.23 171.76 154.36 C 170.91 150.64 170.24 146.89 169.42 143.17 C 169.03 141.50 168.58 139.86 168.17 138.20 C 167.17 134.16 166.58 130.03 165.96 125.92 C 167.62 125.50 169.30 125.12 170.98 124.79 M 174.16 131.49 C 174.57 136.40 175.77 141.20 176.78 146.01 C 182.16 145.75 187.32 144.10 192.62 143.30 C 192.13 138.98 191.28 134.71 190.12 130.52 L 190.93 130.12 C 190.50 129.69 189.64 128.85 189.21 128.42 C 184.19 129.43 179.12 130.22 174.16 131.49 Z" />
<path fill="#318fa6" opacity="1.00" d=" M 180.95 420.31 C 185.80 419.63 190.65 419.00 195.51 418.35 C 199.99 423.97 204.54 429.55 209.06 435.15 C 209.36 435.61 209.97 436.55 210.27 437.01 C 203.24 437.07 196.20 436.37 189.19 437.09 C 189.06 437.62 188.81 438.68 188.68 439.21 C 186.90 434.45 184.88 429.77 182.88 425.09 C 182.20 423.21 180.82 421.75 179.23 420.60 C 179.66 420.53 180.52 420.39 180.95 420.31 Z" />
</g>
<g id="#27778cff">
<path fill="#27778c" opacity="1.00" d=" M 192.85 120.66 C 197.09 119.80 201.32 118.89 205.57 118.08 C 205.90 120.41 206.22 122.75 206.63 125.07 C 203.44 125.75 200.25 126.42 197.05 127.08 C 196.62 125.15 196.08 123.25 195.56 121.34 C 194.88 121.17 193.53 120.83 192.85 120.66 Z" />
</g>
<g id="#ba9d85ff">
<path fill="#ba9d85" opacity="1.00" d=" M 214.41 123.77 C 218.91 122.64 223.46 121.63 228.10 121.22 C 228.01 121.55 227.82 122.21 227.73 122.54 C 226.39 123.58 224.96 124.50 223.48 125.30 C 222.31 125.55 221.15 125.79 219.98 126.03 C 219.33 126.17 218.02 126.45 217.36 126.59 C 217.21 129.72 216.47 132.92 217.05 136.04 L 217.43 136.69 C 218.51 137.48 219.88 137.48 221.14 137.70 C 219.68 137.67 218.21 137.66 216.75 137.66 C 216.25 132.98 214.82 128.46 214.41 123.77 Z" />
</g>
<g id="#debea9ff">
<path fill="#debea9" opacity="1.00" d=" M 223.48 125.30 C 224.96 124.50 226.39 123.58 227.73 122.54 C 229.51 126.54 229.82 130.97 230.64 135.22 C 226.40 135.69 222.07 137.50 217.83 136.31 L 217.05 136.04 C 216.47 132.92 217.21 129.72 217.36 126.59 C 218.02 126.45 219.33 126.17 219.98 126.03 C 219.85 127.87 219.14 131.25 221.95 131.25 C 225.71 132.44 226.94 126.46 223.48 125.30 Z" />
</g>
<g id="#e8c9b6ff">
<path fill="#e8c9b6" opacity="1.00" d=" M 197.05 127.08 C 200.25 126.42 203.44 125.75 206.63 125.07 C 208.09 132.19 209.44 139.35 210.83 146.49 C 210.95 147.19 211.19 148.60 211.31 149.30 C 211.49 150.52 211.65 151.74 211.83 152.96 C 211.25 153.69 210.67 154.42 210.10 155.16 C 207.59 155.48 205.09 155.83 202.58 156.09 C 202.44 155.97 202.15 155.73 202.00 155.61 C 201.53 153.12 201.18 150.61 200.79 148.11 C 199.68 141.08 198.15 134.12 197.05 127.08 Z" />
</g>
<g id="#27788cff">
<path fill="#27788c" opacity="1.00" d=" M 150.73 137.22 C 155.85 133.52 160.51 129.16 165.96 125.92 C 166.58 130.03 167.17 134.16 168.17 138.20 C 164.04 140.03 159.97 142.00 155.84 143.83 C 152.69 145.21 149.60 146.75 146.60 148.43 C 141.97 151.10 137.06 153.21 132.23 155.47 C 131.49 158.65 131.48 161.94 131.39 165.19 C 129.87 161.98 128.50 158.70 127.32 155.35 C 135.16 149.35 142.97 143.33 150.73 137.22 Z" />
</g>
<g id="#2c2a29ff">
<path fill="#2c2a29" opacity="1.00" d=" M 219.98 126.03 C 221.15 125.79 222.31 125.55 223.48 125.30 C 226.94 126.46 225.71 132.44 221.95 131.25 C 219.14 131.25 219.85 127.87 219.98 126.03 Z" />
</g>
<g id="#b79e8aff">
<path fill="#b79e8a" opacity="1.00" d=" M 174.16 131.49 C 179.12 130.22 184.19 129.43 189.21 128.42 C 189.64 128.85 190.50 129.69 190.93 130.12 L 190.12 130.52 C 188.93 131.11 187.75 131.72 186.54 132.25 C 185.29 132.50 184.04 132.72 182.79 132.92 C 181.31 133.14 179.82 133.32 178.34 133.50 C 177.66 137.64 177.19 141.82 176.78 146.01 C 175.77 141.20 174.57 136.40 174.16 131.49 Z" />
</g>
<g id="#2d2b2bff">
<path fill="#2d2b2b" opacity="1.00" d=" M 182.79 132.92 C 184.04 132.72 185.29 132.50 186.54 132.25 C 189.79 133.52 188.53 138.79 185.03 138.00 C 182.33 137.93 182.45 134.83 182.79 132.92 Z" />
</g>
<g id="#886752ff">
<path fill="#886752" opacity="1.00" d=" M 155.84 143.83 C 159.97 142.00 164.04 140.03 168.17 138.20 C 168.58 139.86 169.03 141.50 169.42 143.17 C 164.96 144.89 160.40 146.31 155.90 147.89 L 155.16 148.15 C 155.38 146.71 155.61 145.27 155.84 143.83 Z" />
</g>
<g id="#6f7678ff">
<path fill="#6f7678" opacity="1.00" d=" M 146.60 148.43 C 149.60 146.75 152.69 145.21 155.84 143.83 C 155.61 145.27 155.38 146.71 155.16 148.15 C 152.89 148.97 150.61 149.76 148.32 150.55 C 147.89 150.02 147.03 148.96 146.60 148.43 Z" />
</g>
<g id="#c39a80ff">
<path fill="#c39a80" opacity="1.00" d=" M 210.83 146.49 C 216.36 145.78 221.70 143.93 227.31 143.83 C 222.73 146.29 217.92 148.27 213.06 150.08 C 212.62 149.89 211.74 149.49 211.31 149.30 C 211.19 148.60 210.95 147.19 210.83 146.49 Z" />
</g>
<g id="#9ea1a0ff">
<path fill="#9ea1a0" opacity="1.00" d=" M 148.32 150.55 C 150.61 149.76 152.89 148.97 155.16 148.15 L 155.90 147.89 C 157.03 150.57 158.00 153.32 158.87 156.11 C 156.83 157.30 154.79 158.49 152.74 159.68 C 151.27 156.63 149.99 153.49 148.32 150.55 Z" />
</g>
<g id="#bb9b84ff">
<path fill="#bb9b84" opacity="1.00" d=" M 174.85 153.83 C 183.44 151.71 192.16 150.13 200.79 148.11 C 201.18 150.61 201.53 153.12 202.00 155.61 C 199.93 154.07 197.91 151.57 195.04 152.07 C 188.30 152.60 181.61 153.59 174.85 153.83 Z" />
</g>
<g id="#8b6552ff">
<path fill="#8b6552" opacity="1.00" d=" M 137.09 155.81 C 139.12 154.86 141.18 153.97 143.27 153.15 C 145.06 156.84 147.05 160.44 148.92 164.10 C 144.81 161.57 141.02 158.59 137.09 155.81 Z" />
</g>
<g id="#9ca1a2ff">
<path fill="#9ca1a2" opacity="1.00" d=" M 119.23 161.80 C 121.96 159.69 124.62 157.49 127.32 155.35 C 128.50 158.70 129.87 161.98 131.39 165.19 C 131.48 161.94 131.49 158.65 132.23 155.47 C 134.72 161.79 139.13 167.06 142.22 173.06 C 144.03 177.83 145.61 182.68 147.30 187.50 C 144.10 185.50 141.56 182.69 138.82 180.15 C 132.30 174.02 125.79 167.88 119.23 161.80 Z" />
</g>
<g id="#8b6752ff">
<path fill="#8b6752" opacity="1.00" d=" M 202.58 156.09 C 205.09 155.83 207.59 155.48 210.10 155.16 C 210.58 155.10 211.55 154.98 212.03 154.93 C 210.75 156.81 209.46 158.68 208.15 160.54 C 206.26 159.10 204.39 157.63 202.58 156.09 Z" />
<path fill="#8b6752" opacity="1.00" d=" M 192.94 174.36 C 202.69 172.57 212.39 170.45 222.15 168.71 C 222.11 169.28 222.02 170.41 221.97 170.98 C 212.40 173.14 202.74 174.90 193.11 176.83 C 193.07 176.21 192.98 174.98 192.94 174.36 Z" />
</g>
<g id="#8b6650ff">
<path fill="#8b6650" opacity="1.00" d=" M 142.22 173.06 C 146.16 171.29 150.09 169.51 154.01 167.72 L 155.63 167.48 C 153.04 174.21 151.22 181.39 147.30 187.50 C 145.61 182.68 144.03 177.83 142.22 173.06 Z" />
<path fill="#8b6650" opacity="1.00" d=" M 182.69 199.36 C 188.00 198.27 193.34 197.28 198.66 196.22 C 198.30 200.62 198.93 205.07 198.36 209.45 C 196.14 214.02 192.88 218.00 190.27 222.36 L 190.23 222.32 C 185.26 215.28 180.68 207.97 175.92 200.79 C 178.17 200.31 180.42 199.80 182.69 199.36 Z" />
<path fill="#8b6650" opacity="1.00" d=" M 280.85 256.49 C 282.32 253.43 283.89 250.43 285.66 247.54 C 286.22 249.08 286.79 250.64 287.27 252.21 C 287.21 256.18 286.64 260.11 286.20 264.05 C 284.52 261.46 282.69 258.97 280.85 256.49 Z" />
</g>
<g id="#8e9091ff">
<path fill="#8e9091" opacity="1.00" d=" M 292.23 211.12 C 294.16 206.37 296.17 201.65 298.34 197.01 C 299.24 201.89 300.11 206.79 300.98 211.69 C 298.07 211.36 295.15 211.19 292.23 211.12 Z" />
</g>
<g id="#505254ff">
<path fill="#505254" opacity="1.00" d=" M 292.23 211.12 C 295.15 211.19 298.07 211.36 300.98 211.69 C 299.93 221.38 298.77 231.07 297.71 240.76 C 295.33 240.07 292.94 239.43 290.55 238.82 C 290.09 237.09 289.78 235.31 289.82 233.52 C 290.44 226.04 291.63 218.61 292.23 211.12 Z" />
<path fill="#505254" opacity="1.00" d=" M 190.23 222.32 L 190.27 222.36 C 193.70 224.30 197.28 225.97 200.79 227.77 C 198.54 231.51 196.23 235.21 193.92 238.91 C 190.30 237.10 186.69 235.28 183.05 233.52 C 185.44 229.79 187.83 226.05 190.23 222.32 Z" />
<path fill="#505254" opacity="1.00" d=" M 286.18 264.22 C 289.13 264.53 292.07 264.91 295.01 265.35 C 294.49 268.38 294.16 271.43 293.85 274.49 C 290.95 274.17 288.05 273.84 285.16 273.51 C 285.49 270.59 285.80 267.66 286.12 264.74 L 286.18 264.22 Z" />
<path fill="#505254" opacity="1.00" d=" M 196.36 352.16 C 208.01 347.06 218.21 339.20 229.59 333.56 C 223.64 349.94 216.81 366.01 210.50 382.27 C 202.27 383.84 194.08 385.69 185.99 387.89 C 184.01 398.65 182.46 409.48 180.95 420.31 C 180.52 420.39 179.66 420.53 179.23 420.60 C 172.59 421.99 165.87 422.89 159.18 423.98 C 156.43 411.58 153.68 399.19 150.90 386.80 C 162.56 386.90 174.20 387.78 185.86 387.42 C 187.36 378.59 188.67 369.72 190.27 360.91 C 190.99 360.85 192.44 360.72 193.16 360.66 C 193.61 360.70 194.51 360.77 194.96 360.81 C 195.42 357.92 195.89 355.04 196.36 352.16 Z" />
</g>
<g id="#1b7677ff">
<path fill="#1b7677" opacity="1.00" d=" M 206.04 244.61 C 211.01 236.53 215.70 228.25 221.09 220.44 L 221.15 221.43 C 221.44 231.00 222.51 240.52 223.29 250.06 C 224.11 258.85 224.61 267.68 225.77 276.43 C 225.56 276.61 225.13 276.95 224.91 277.12 C 217.88 284.62 212.21 293.31 204.81 300.47 C 204.81 299.58 204.81 297.78 204.81 296.89 C 206.78 284.54 208.76 272.19 210.57 259.82 C 206.78 259.03 202.97 258.32 199.14 257.81 C 200.22 252.85 203.64 248.96 206.04 244.61 Z" />
<path fill="#1b7677" opacity="1.00" d=" M 142.00 227.90 C 156.85 235.40 171.43 243.42 186.14 251.22 C 189.05 252.61 191.90 254.14 194.52 256.04 C 193.61 256.12 191.80 256.27 190.90 256.34 C 174.63 253.29 158.34 250.18 141.94 247.94 C 142.11 241.26 141.96 234.58 142.00 227.90 Z" />
</g>
<g id="#359496ff">
<path fill="#359496" opacity="1.00" d=" M 221.15 221.43 C 230.55 234.84 239.45 248.61 248.45 262.28 C 240.93 267.06 233.48 271.96 225.77 276.43 C 224.61 267.68 224.11 258.85 223.29 250.06 C 222.51 240.52 221.44 231.00 221.15 221.43 Z" />
<path fill="#359496" opacity="1.00" d=" M 204.81 300.47 C 212.21 293.31 217.88 284.62 224.91 277.12 L 225.61 277.64 C 227.22 296.32 229.05 315.00 230.21 333.72 L 229.59 333.56 C 227.77 333.03 225.87 332.73 223.97 332.95 C 215.92 333.64 207.83 333.55 199.76 333.80 C 202.39 331.73 205.35 329.67 206.61 326.42 C 208.44 322.08 210.37 317.77 211.97 313.34 C 209.37 311.78 206.82 310.13 204.17 308.68 C 204.30 304.74 204.19 300.79 204.81 296.89 C 204.81 297.78 204.81 299.58 204.81 300.47 Z" />
<path fill="#359496" opacity="1.00" d=" M 113.61 314.98 C 122.98 306.60 132.69 298.59 142.34 290.53 C 152.93 294.32 163.55 298.03 174.14 301.82 C 172.79 308.18 171.54 314.56 170.13 320.91 C 169.57 321.88 169.01 322.85 168.42 323.81 C 155.19 321.59 141.94 319.43 128.65 317.62 C 124.44 317.03 120.22 316.54 116.07 315.63 C 115.46 315.47 114.22 315.14 113.61 314.98 Z" />
</g>
<g id="#73cbcdff">
<path fill="#73cbcd" opacity="1.00" d=" M 118.72 240.86 C 126.13 236.29 133.79 232.06 141.31 227.64 L 142.00 227.90 C 141.96 234.58 142.11 241.26 141.94 247.94 C 141.47 262.14 142.59 276.33 142.34 290.53 C 132.69 298.59 122.98 306.60 113.61 314.98 C 114.22 315.14 115.46 315.47 116.07 315.63 C 115.34 315.66 113.86 315.73 113.13 315.77 C 113.87 297.15 115.72 278.60 116.89 260.00 C 117.81 253.67 117.14 247.05 118.72 240.86 Z" />
<path fill="#73cbcd" opacity="1.00" d=" M 248.45 262.28 C 254.82 258.30 260.94 253.95 267.40 250.12 C 271.35 256.61 275.81 262.78 279.56 269.39 C 268.09 278.45 256.60 287.49 244.96 296.33 C 238.18 290.45 232.88 282.94 225.61 277.64 L 224.91 277.12 C 225.13 276.95 225.56 276.61 225.77 276.43 C 233.48 271.96 240.93 267.06 248.45 262.28 Z" />
</g>
<g id="#737373ff">
<path fill="#737373" opacity="1.00" d=" M 186.14 251.22 C 188.75 247.12 191.35 243.02 193.94 238.92 C 197.98 240.81 202.01 242.70 206.04 244.61 C 203.64 248.96 200.22 252.85 199.14 257.81 C 196.37 257.41 193.63 256.88 190.90 256.34 C 191.80 256.27 193.61 256.12 194.52 256.04 C 191.90 254.14 189.05 252.61 186.14 251.22 Z" />
</g>
<g id="#8f8f8fff">
<path fill="#8f8f8f" opacity="1.00" d=" M 141.94 247.94 C 158.34 250.18 174.63 253.29 190.90 256.34 C 193.63 256.88 196.37 257.41 199.14 257.81 C 202.97 258.32 206.78 259.03 210.57 259.82 C 208.76 272.19 206.78 284.54 204.81 296.89 C 204.19 300.79 204.30 304.74 204.17 308.68 L 203.01 309.00 L 203.12 307.98 C 202.98 306.15 203.71 303.42 201.43 302.64 C 198.11 301.16 194.25 298.86 190.58 300.53 C 187.85 301.57 185.29 303.00 182.69 304.33 L 181.98 304.17 C 179.33 303.53 176.71 302.72 174.14 301.82 C 163.55 298.03 152.93 294.32 142.34 290.53 C 142.59 276.33 141.47 262.14 141.94 247.94 Z" />
<path fill="#8f8f8f" opacity="1.00" d=" M 126.63 331.05 C 150.45 331.76 174.25 333.09 198.06 333.87 L 199.13 333.83 C 198.30 339.95 197.26 346.04 196.36 352.16 C 195.89 355.04 195.42 357.92 194.96 360.81 C 194.51 360.77 193.61 360.70 193.16 360.66 C 191.94 360.49 190.73 360.30 189.52 360.14 C 174.30 357.69 159.05 355.38 143.82 353.02 C 143.84 353.50 143.90 354.46 143.92 354.94 C 143.62 354.44 143.00 353.45 142.69 352.96 C 136.40 351.84 130.06 351.00 123.75 350.01 C 124.61 343.68 125.70 337.38 126.63 331.05 Z" />
</g>
<g id="#c2997eff">
<path fill="#c2997e" opacity="1.00" d=" M 190.58 300.53 C 194.25 298.86 198.11 301.16 201.43 302.64 C 203.71 303.42 202.98 306.15 203.12 307.98 C 196.30 306.83 189.48 305.65 182.69 304.33 C 185.29 303.00 187.85 301.57 190.58 300.53 Z" />
</g>
<g id="#c3987dff">
<path fill="#c3987d" opacity="1.00" d=" M 203.01 309.00 L 204.17 308.68 C 206.82 310.13 209.37 311.78 211.97 313.34 C 210.37 317.77 208.44 322.08 206.61 326.42 C 205.35 329.67 202.39 331.73 199.76 333.80 L 199.13 333.83 L 198.06 333.87 L 198.61 333.66 C 201.09 325.68 201.41 317.19 203.01 309.00 Z" />
</g>
<g id="#6f7173ff">
<path fill="#6f7173" opacity="1.00" d=" M 128.65 317.62 C 141.94 319.43 155.19 321.59 168.42 323.81 C 169.01 322.85 169.57 321.88 170.13 320.91 C 169.96 321.70 169.63 323.30 169.47 324.09 C 172.66 324.61 175.86 325.06 179.03 325.70 C 185.63 328.16 192.06 331.07 198.61 333.66 L 198.06 333.87 C 174.25 333.09 150.45 331.76 126.63 331.05 C 127.22 326.56 127.90 322.08 128.65 317.62 Z" />
<path fill="#6f7173" opacity="1.00" d=" M 189.52 360.14 C 190.73 360.30 191.94 360.49 193.16 360.66 C 192.44 360.72 190.99 360.85 190.27 360.91 C 188.67 369.72 187.36 378.59 185.86 387.42 C 174.20 387.78 162.56 386.90 150.90 386.80 C 149.57 380.10 147.71 373.47 146.65 366.75 L 147.01 366.20 C 161.08 363.57 175.44 362.75 189.52 360.14 Z" />
<path fill="#6f7173" opacity="1.00" d=" M 185.99 387.89 C 194.08 385.69 202.27 383.84 210.50 382.27 C 205.50 394.29 200.73 406.42 195.51 418.35 C 190.65 419.00 185.80 419.63 180.95 420.31 C 182.46 409.48 184.01 398.65 185.99 387.89 Z" />
</g>
<g id="#474747ff">
<path fill="#474747" opacity="1.00" d=" M 199.76 333.80 C 207.83 333.55 215.92 333.64 223.97 332.95 C 225.87 332.73 227.77 333.03 229.59 333.56 C 218.21 339.20 208.01 347.06 196.36 352.16 C 197.26 346.04 198.30 339.95 199.13 333.83 L 199.76 333.80 Z" />
<path fill="#474747" opacity="1.00" d=" M 143.82 353.02 C 159.05 355.38 174.30 357.69 189.52 360.14 C 175.44 362.75 161.08 363.57 147.01 366.20 L 146.33 365.99 C 145.12 362.46 144.38 358.67 143.92 354.94 C 143.90 354.46 143.84 353.50 143.82 353.02 Z" />
</g>
<g id="#3aa1b9ff">
<path fill="#3aa1b9" opacity="1.00" d=" M 159.18 423.98 C 165.87 422.89 172.59 421.99 179.23 420.60 C 180.82 421.75 182.20 423.21 182.88 425.09 C 184.88 429.77 186.90 434.45 188.68 439.21 C 188.73 439.64 188.82 440.49 188.87 440.91 C 177.83 440.83 166.78 440.72 155.75 440.16 C 155.84 439.62 156.01 438.55 156.10 438.01 C 157.07 433.32 158.23 428.67 159.18 423.98 Z" />
</g>
<g id="#c8d6ddff">
<path fill="#c8d6dd" opacity="1.00" d=" M 209.06 435.15 C 216.17 434.97 223.23 436.09 230.32 436.57 C 250.59 438.10 270.83 440.01 291.11 441.43 C 286.60 443.10 281.74 443.17 277.03 443.84 C 255.39 446.62 233.70 449.07 212.05 451.79 C 208.73 452.21 205.37 452.33 202.04 452.01 C 176.70 449.26 151.34 446.57 126.00 443.81 C 119.64 443.10 113.24 442.64 106.96 441.42 C 123.33 440.27 139.69 438.66 156.10 438.01 C 156.01 438.55 155.84 439.62 155.75 440.16 C 155.61 441.67 155.55 443.18 155.48 444.70 C 166.94 445.07 178.41 445.54 189.88 445.40 C 189.82 443.94 189.77 442.49 189.72 441.04 C 196.64 441.10 203.56 441.21 210.47 441.25 C 210.42 439.83 210.36 438.42 210.27 437.01 C 209.97 436.55 209.36 435.61 209.06 435.15 Z" />
</g>
<g id="#28778bff">
<path fill="#28778b" opacity="1.00" d=" M 189.19 437.09 C 196.20 436.37 203.24 437.07 210.27 437.01 C 210.36 438.42 210.42 439.83 210.47 441.25 C 203.56 441.21 196.64 441.10 189.72 441.04 C 189.77 442.49 189.82 443.94 189.88 445.40 C 178.41 445.54 166.94 445.07 155.48 444.70 C 155.55 443.18 155.61 441.67 155.75 440.16 C 166.78 440.72 177.83 440.83 188.87 440.91 C 188.82 440.49 188.73 439.64 188.68 439.21 C 188.81 438.68 189.06 437.62 189.19 437.09 Z" />
</g>
</svg>
